<svg width="16" height="16" viewBox="0 0 16 16" fill="none" xmlns="http://www.w3.org/2000/svg">
<g clip-path="url(#clip0)">
<path d="M14.1892 5.09131H13.7783V9.60682C13.7783 10.3099 13.369 10.9456 12.5483 10.9456H4.50793V11.1603C4.50793 11.7819 5.21492 12.4093 5.94094 12.4093H12.0882L14.44 13.792L14.0989 12.4093H14.1892C14.9147 12.4093 15.2421 11.7833 15.2421 11.1603V6.16323C15.2421 5.54164 14.9147 5.09131 14.1892 5.09131Z" fill="white"/>
<path d="M11.348 1.9541H2.0093C1.18765 1.9541 0.242065 2.684 0.242065 3.38755V9.04719C0.242065 9.69512 1.04322 10.163 1.81169 10.2352L1.31158 12.1336L4.51621 10.2484H11.348C12.1697 10.2484 12.9279 9.75026 12.9279 9.04719V4.46825V3.38755C12.9279 2.684 12.1692 1.9541 11.348 1.9541ZM3.43401 6.73162C2.96805 6.73162 2.5904 6.35398 2.5904 5.88804C2.5904 5.4221 2.96805 5.04446 3.43401 5.04446C3.89948 5.04446 4.27762 5.4221 4.27762 5.88804C4.27762 6.35398 3.89948 6.73162 3.43401 6.73162ZM6.58497 6.73162C6.11901 6.73162 5.74137 6.35398 5.74137 5.88804C5.74137 5.4221 6.11901 5.04446 6.58497 5.04446C7.05093 5.04446 7.42858 5.4221 7.42858 5.88804C7.42858 6.35398 7.05093 6.73162 6.58497 6.73162ZM9.73642 6.73162C9.27046 6.73162 8.89233 6.35398 8.89233 5.88804C8.89233 5.4221 9.27046 5.04446 9.73642 5.04446C10.2014 5.04446 10.58 5.4221 10.58 5.88804C10.58 6.35398 10.2014 6.73162 9.73642 6.73162Z" fill="white"/>
</g>
<defs>
<clipPath id="clip0">
<rect width="15" height="15" fill="white" transform="translate(0.242065 0.373535)"/>
</clipPath>
</defs>
</svg>
