<svg width="41" height="46" viewBox="0 0 41 46" fill="none" xmlns="http://www.w3.org/2000/svg">
<path d="M40.3552 42.8797L38.3846 31.3429C38.1722 30.0999 37.2904 29.1014 36.0831 28.7372L30.7679 27.1334C30.6579 25.8341 30.1251 24.6084 29.2386 23.6381C28.5294 22.862 27.6375 22.297 26.6543 21.9851C26.8225 21.7984 26.9785 21.6123 27.1216 21.4303C28.3856 19.8228 29.0623 18.0517 29.2346 16.8432H29.6446C30.7111 16.8432 31.5788 15.9756 31.5788 14.909V13.9175C31.5788 13.2058 31.1784 12.5608 30.5763 12.2261V9.84189C30.5763 9.48161 30.2842 9.18954 29.9239 9.18954C29.5636 9.18954 29.2716 9.48152 29.2716 9.84189V12.5184C29.0176 12.5626 28.7145 12.6388 28.4044 12.7694C28.3726 12.7809 28.3418 12.7943 28.3125 12.8104C28.2425 12.8424 28.1724 12.876 28.1025 12.914V7.65707C28.1025 6.20473 26.921 5.02323 25.4687 5.02323H23.6681C23.0471 5.02323 22.4404 5.23961 21.9597 5.63269L21.783 5.77711C21.4584 6.04247 21.0488 6.18864 20.6296 6.18864C20.2103 6.18864 19.8006 6.04247 19.4761 5.77711L19.2995 5.63269C18.8187 5.2397 18.212 5.02323 17.591 5.02323H15.7903C14.338 5.02323 13.1565 6.20473 13.1565 7.65707V12.914C13.0866 12.876 13.0165 12.8424 12.9464 12.8104C12.9172 12.7943 12.8864 12.7809 12.8546 12.7694C12.5446 12.6388 12.2414 12.5626 11.9874 12.5184V5.75058C11.9874 3.63832 13.7059 1.91984 15.8181 1.91984H25.4407C27.5531 1.91984 29.2715 3.63832 29.2715 5.75058V6.77599C29.2715 7.13627 29.5635 7.42834 29.9237 7.42834C30.2839 7.42834 30.5761 7.13636 30.5761 6.77599V5.75058C30.5761 2.91898 28.2723 0.615234 25.4407 0.615234H15.8181C12.9865 0.615234 10.6828 2.91898 10.6828 5.75058V12.2262C10.0807 12.5609 9.68026 13.2058 9.68026 13.9176V14.9091C9.68026 15.9757 10.5479 16.8433 11.6144 16.8433H12.0245C12.1966 18.0518 12.8734 19.8229 14.1374 21.4304C14.2804 21.6122 14.4363 21.7982 14.6044 21.9847C12.344 22.7026 10.6957 24.7349 10.4911 27.1334L5.17578 28.7372C3.96844 29.1014 3.08658 30.0999 2.87429 31.3429L2.07404 36.0279C2.0134 36.3831 2.25214 36.72 2.60719 36.7807C2.96217 36.8415 3.2993 36.6027 3.36003 36.2475L4.16028 31.5625C4.2887 30.8104 4.8222 30.2065 5.55259 29.9862L10.4687 28.5029V29.7932C9.34182 30.0006 8.38296 30.7747 7.98806 31.8472C7.88322 32.1318 7.81805 32.4299 7.79439 32.733L7.31927 38.8315C7.28342 39.2909 7.44238 39.7483 7.75515 40.0863C8.06793 40.4244 8.51155 40.6184 8.97223 40.6184H9.78554C10.1458 40.6184 10.4379 40.3265 10.4379 39.9661C10.4379 39.6057 10.1458 39.3138 9.78554 39.3138H8.97223C8.87401 39.3138 8.77952 39.2726 8.71279 39.2004C8.64615 39.1283 8.6123 39.0309 8.61996 38.933L9.09508 32.8345C9.10944 32.6508 9.14885 32.4703 9.21236 32.2979C9.48712 31.5519 10.2291 31.0467 11.0588 31.0408L11.1663 31.04C11.1713 31.04 11.1763 31.04 11.1812 31.04C11.9877 31.04 12.7015 31.4972 13.0026 32.2081C13.0871 32.4075 13.1385 32.6182 13.1553 32.8345L13.6306 38.9331C13.6382 39.0309 13.6044 39.1283 13.5377 39.2005C13.4711 39.2725 13.3765 39.3138 13.2783 39.3138H12.465C12.1047 39.3138 11.8126 39.6058 11.8126 39.9661C11.8126 40.3264 12.1047 40.6184 12.465 40.6184H13.2783C13.7389 40.6184 14.1827 40.4245 14.4953 40.0863C14.8082 39.7482 14.9672 39.2908 14.9313 38.8316L14.456 32.733C14.4282 32.3761 14.3434 32.0282 14.2039 31.6991C13.7742 30.6849 12.8553 29.9797 11.7732 29.7889V28.1093L14.0156 27.4326C14.2196 27.8623 14.6239 28.7909 15.4248 30.7926C16.2319 32.8123 17.2352 35.4011 18.1973 37.9177C18.2042 37.9388 18.2121 37.9595 18.221 37.9796C18.8631 39.6598 19.4859 41.3053 20.0186 42.7249C20.1142 42.9794 20.3575 43.1481 20.6294 43.1481C20.9013 43.1481 21.1446 42.9794 21.2402 42.7249C21.7728 41.3053 22.3956 39.6598 23.0378 37.9796C23.0468 37.9595 23.0546 37.9388 23.0615 37.9177C24.0229 35.4025 25.0256 32.8154 25.8324 30.7963C26.6343 28.7921 27.039 27.8627 27.2431 27.4326L29.4855 28.1093V31.9622C27.9318 32.264 26.7549 33.6343 26.7549 35.275C26.7549 37.1361 28.269 38.6503 30.1302 38.6503C31.9914 38.6503 33.5055 37.1362 33.5055 35.275C33.5055 33.6397 32.3363 32.2727 30.7901 31.965V28.503L35.7063 29.9863C36.4367 30.2066 36.9701 30.8105 37.0986 31.5626L39.0692 43.0994C39.1019 43.2907 39.051 43.4778 38.9258 43.6261C38.8007 43.7744 38.6249 43.8562 38.4308 43.8562H2.82801C2.6339 43.8562 2.45816 43.7745 2.33296 43.6261C2.20785 43.4778 2.15687 43.2908 2.18958 43.0994L2.83993 39.292C2.90057 38.9369 2.66183 38.5999 2.30677 38.5393C1.9518 38.4784 1.61467 38.7173 1.55394 39.0724L0.903591 42.8798C0.806583 43.4481 0.964145 44.0268 1.33582 44.4675C1.70767 44.908 2.25153 45.1607 2.82801 45.1607H38.4308C39.0073 45.1607 39.5512 44.908 39.923 44.4674C40.2946 44.0267 40.4522 43.448 40.3552 42.8797ZM29.2793 13.8474C29.6269 13.7608 29.9059 13.7623 29.909 13.7624C30.0214 13.7639 30.1307 13.7376 30.2278 13.6867C30.2569 13.759 30.274 13.8367 30.274 13.9176V14.9091C30.274 15.2562 29.9916 15.5387 29.6445 15.5387H29.2793V13.8474ZM11.9795 15.5387H11.6143C11.2672 15.5387 10.9848 15.2562 10.9848 14.9091V13.9176C10.9848 13.8367 11.002 13.759 11.031 13.6868C11.128 13.7377 11.2373 13.764 11.3498 13.7624C11.3547 13.7633 11.633 13.7617 11.9795 13.8478V15.5387ZM13.2841 16.2701V14.5563C13.4818 14.6156 13.698 14.6075 13.8976 14.5242C14.2399 14.3813 14.4611 14.0496 14.4611 13.6789V7.65707C14.4611 6.92416 15.0574 6.32784 15.7903 6.32784H17.5908C17.9117 6.32784 18.2252 6.43964 18.4736 6.6427L18.6502 6.78713C19.2071 7.2425 19.91 7.49316 20.6294 7.49316C21.3488 7.49316 22.0517 7.24242 22.6086 6.78713L22.7852 6.6427C23.0335 6.43964 23.3471 6.32784 23.668 6.32784H25.4685C26.2014 6.32784 26.7977 6.92416 26.7977 7.65707V13.679C26.7977 14.0496 27.0189 14.3814 27.3612 14.5243C27.4756 14.572 27.5953 14.5951 27.7139 14.5951C27.8024 14.5951 27.8902 14.5821 27.9747 14.5569V16.2701C27.9747 17.2225 27.3163 19.072 26.096 20.624C25.6917 21.1381 25.1722 21.6904 24.5324 22.1731C24.5122 22.1866 24.4928 22.2013 24.4742 22.217C23.4832 22.9497 22.2088 23.5111 20.6294 23.5111C19.0499 23.5111 17.7756 22.9497 16.7845 22.2169C16.7659 22.2013 16.7466 22.1866 16.7264 22.1731C16.0867 21.6904 15.5671 21.1381 15.1628 20.624C13.9426 19.0721 13.2841 17.2225 13.2841 16.2701ZM24.903 26.8092L20.6294 30.0034L16.3558 26.8092C16.7796 26.2705 17.017 25.5791 17.017 24.9621V23.9106C18.022 24.4511 19.2212 24.8158 20.6294 24.8158C22.0376 24.8158 23.2369 24.4511 24.2418 23.9106V24.9621C24.2418 25.5791 24.4792 26.2705 24.903 26.8092ZM15.2672 26.0811C14.9188 25.9484 14.5326 25.9266 14.1673 26.0257C14.1513 26.0295 14.1356 26.0337 14.1204 26.0382L11.8667 26.7183C12.2479 24.844 13.7697 23.3523 15.7124 23.0634V24.9621C15.7124 25.3714 15.5297 25.7945 15.2672 26.0811ZM17.0376 31.3176C17.0364 31.3145 17.0351 31.3115 17.034 31.3085C17.0009 31.2249 16.9683 31.1424 16.936 31.0609C16.9301 31.0461 16.9243 31.0314 16.9185 31.0168C16.8868 30.937 16.8554 30.8579 16.8244 30.78C16.8222 30.7745 16.8201 30.7691 16.8179 30.7635C16.7212 30.5205 16.628 30.2875 16.5384 30.0641C16.5319 30.0479 16.5254 30.0315 16.5189 30.0154C16.4931 29.9514 16.4678 29.8883 16.4426 29.826C16.4334 29.8031 16.4243 29.7805 16.4152 29.7579C16.3908 29.6975 16.3666 29.6375 16.3428 29.5787C16.3356 29.5612 16.3287 29.5441 16.3216 29.5266C16.2784 29.42 16.2361 29.316 16.1949 29.2146C16.1837 29.1872 16.1723 29.1593 16.1613 29.1322C16.1451 29.0927 16.1293 29.0543 16.1135 29.0156C16.0965 28.9738 16.0794 28.9324 16.0627 28.8917C16.0564 28.8765 16.0499 28.8604 16.0437 28.8452C16.0386 28.833 16.034 28.8218 16.029 28.8097C15.9537 28.6267 15.8821 28.4541 15.8141 28.2919L15.8125 28.288C15.7763 28.2016 15.7409 28.1172 15.7069 28.0368C15.6892 27.9951 15.6718 27.9541 15.6547 27.9139L19.3302 30.661L17.7944 31.3134C17.7917 31.3145 17.7889 31.3157 17.7862 31.3169L17.145 31.5893C17.1087 31.4973 17.0731 31.4072 17.0376 31.3176ZM18.5941 35.3117C18.4652 34.9774 18.3354 34.6411 18.2053 34.3052C18.0019 33.7798 17.8076 33.2802 17.6217 32.8043L17.8651 32.7008L18.8598 33.857L18.5941 35.3117ZM20.642 40.6135C20.6233 40.5747 20.601 40.5381 20.5753 40.504C20.2805 39.7248 19.9064 38.739 19.4924 37.6543L20.1014 34.32H21.1574L21.7664 37.6543C21.3326 38.7907 20.9429 39.8182 20.642 40.6135ZM21.4021 33.0154H19.8567L19.1255 32.1654L20.6294 31.5266L22.1333 32.1654L21.4021 33.0154ZM23.0535 34.3052C22.9234 34.6411 22.7936 34.9774 22.6647 35.3117L22.399 33.8569L23.3937 32.7008L23.6371 32.8042C23.4512 33.2801 23.2569 33.7798 23.0535 34.3052ZM25.552 28.0368C25.5197 28.113 25.4862 28.193 25.452 28.2746C25.4475 28.2852 25.443 28.2959 25.4386 28.3066C25.4047 28.3875 25.3703 28.4702 25.3346 28.5562C25.3322 28.5619 25.3298 28.5679 25.3275 28.5736C25.2967 28.6478 25.2651 28.7244 25.233 28.8024C25.227 28.817 25.2213 28.8305 25.2153 28.8452C25.2082 28.8627 25.2005 28.8812 25.1933 28.8989C25.179 28.9337 25.1645 28.9692 25.1499 29.0047C25.132 29.0485 25.1141 29.092 25.0958 29.1369C25.0899 29.1511 25.0839 29.166 25.078 29.1804C25.0326 29.2916 24.986 29.4063 24.9383 29.5241C24.9308 29.5425 24.9234 29.5606 24.9159 29.5794C24.8924 29.6376 24.8683 29.697 24.8442 29.7568C24.8349 29.7802 24.8254 29.8035 24.8159 29.8271C24.791 29.8888 24.7659 29.9513 24.7405 30.0146C24.7333 30.0323 24.7261 30.0504 24.719 30.0681C24.6305 30.2884 24.5387 30.5182 24.4434 30.7576C24.4403 30.7655 24.4372 30.7733 24.434 30.7813C24.4032 30.8586 24.3721 30.9373 24.3406 31.0166C24.3348 31.0313 24.3288 31.0461 24.3229 31.061C24.2904 31.143 24.2576 31.2258 24.2244 31.3099L24.2225 31.3145C24.1867 31.4052 24.1507 31.4964 24.1139 31.5895L23.4721 31.3168C23.4699 31.3158 23.4676 31.3149 23.4654 31.3139L21.9288 30.6611L25.6042 27.9141C25.587 27.9541 25.5696 27.995 25.552 28.0368ZM27.1384 26.0383V26.0383L27.1364 26.0377C26.758 25.9242 26.3543 25.943 25.9917 26.0811C25.7291 25.7945 25.5464 25.3714 25.5464 24.9621V23.0624C27.5013 23.3506 29.0186 24.8283 29.3948 26.719L27.1384 26.0383ZM32.2009 35.275C32.2009 36.4168 31.2719 37.3457 30.1302 37.3457C28.9885 37.3457 28.0595 36.4168 28.0595 35.275C28.0595 34.1332 28.9885 33.2043 30.1302 33.2043C31.2719 33.2043 32.2009 34.1332 32.2009 35.275Z" fill="#0B0B0B"/>
</svg>
